<?xml version="1.0" encoding="UTF-8"?>
<svg xmlns="http://www.w3.org/2000/svg" xmlns:xlink="http://www.w3.org/1999/xlink" viewBox="0 0 512 512">
  <defs>
    <style>
      .p {
        fill: #2f394e;
      }

      .q {
        fill: #849a3b;
      }

      .r {
        fill: url(#h);
      }

      .s {
        fill: url(#i);
      }

      .t {
        fill: url(#f);
      }

      .u {
        fill: #896c42;
      }

      .v {
        fill: #ccbc68;
      }

      .w {
        fill: #c46b5b;
      }

      .x {
        fill: #909dae;
      }

      .y {
        fill: url(#c);
      }
    </style>
    <linearGradient id="c" x1="256.38" y1="290.89" x2="256.38" y2="-6.48" gradientUnits="userSpaceOnUse">
      <stop offset="0" stop-color="#ccbc68"/>
      <stop offset=".03" stop-color="#caaa65"/>
      <stop offset=".08" stop-color="#c79361"/>
      <stop offset=".14" stop-color="#c6815e"/>
      <stop offset=".2" stop-color="#c4745c"/>
      <stop offset=".29" stop-color="#c46d5b"/>
      <stop offset=".49" stop-color="#c46b5b"/>
      <stop offset=".59" stop-color="#b2726f"/>
      <stop offset=".87" stop-color="#8086aa"/>
      <stop offset="1" stop-color="#6d8fc1"/>
    </linearGradient>
    <radialGradient id="f" cx="220.12" cy="358.69" fx="454.64" fy="235.14" r="443.31" gradientTransform="translate(-181.08 555.2) rotate(-94.93) scale(.46 1.15) skewX(-9.75)" gradientUnits="userSpaceOnUse">
      <stop offset="0" stop-color="#c46b5b"/>
      <stop offset=".18" stop-color="#b2726f"/>
      <stop offset=".74" stop-color="#8086aa"/>
      <stop offset="1" stop-color="#6d8fc1"/>
    </radialGradient>
    <linearGradient id="h" x1="257.68" y1="208.24" x2="257.68" y2="272.91" gradientUnits="userSpaceOnUse">
      <stop offset="0" stop-color="#fff"/>
      <stop offset=".08" stop-color="#fbf6f5"/>
      <stop offset=".21" stop-color="#f2dfdb"/>
      <stop offset=".38" stop-color="#e3b9b1"/>
      <stop offset=".58" stop-color="#ce8578"/>
      <stop offset=".67" stop-color="#c46b5b"/>
      <stop offset=".75" stop-color="#c16c5e"/>
      <stop offset=".81" stop-color="#b86f68"/>
      <stop offset=".87" stop-color="#a97579"/>
      <stop offset=".92" stop-color="#957e91"/>
      <stop offset=".98" stop-color="#7b89b0"/>
      <stop offset="1" stop-color="#6d8fc1"/>
    </linearGradient>
    <linearGradient id="i" x1="147.05" y1="48.55" x2="147.05" y2="134.74" gradientUnits="userSpaceOnUse">
      <stop offset="0" stop-color="#fff"/>
      <stop offset=".06" stop-color="#f8edeb"/>
      <stop offset=".34" stop-color="#dca79e"/>
      <stop offset=".54" stop-color="#ca7b6d"/>
      <stop offset=".64" stop-color="#c46b5b"/>
      <stop offset=".73" stop-color="#c46e5b"/>
      <stop offset=".81" stop-color="#c5785d"/>
      <stop offset=".88" stop-color="#c7895f"/>
      <stop offset=".94" stop-color="#c9a163"/>
      <stop offset="1" stop-color="#ccbc68"/>
    </linearGradient>
  </defs>
  <g id="b" data-name="sky">
    <rect class="y" x="-4.78" y="-6.48" width="522.32" height="297.37"/>
  </g>
  <g id="d" data-name="sun">
    <circle class="v" cx="156.59" cy="244.61" r="93.73"/>
  </g>
  <g id="e" data-name="water">
    <rect class="t" x="-.94" y="282.59" width="518.06" height="233.89"/>
  </g>
  <g id="g" data-name="clouds">
    <path class="r" d="m566.14,253.47s23.12-11.78-7.2-19.08c0,0,1.52-27.09-48.52-16.02,0,0-25.78-20.02-50.04-3.77,0,0-33.36-11.31-48.9,7.07,0,0-40.18-3.77-47.76,10.84,0,0-.76.16-2.08.44-5.32-5.99-17.31-11.12-44.29-5.15,0,0-25.78-20.02-50.04-3.77,0,0-33.36-11.31-48.9,7.07,0,0-22.42-2.1-36.93,2.92-1.63-6.94-9.6-21.02-48.11-12.5,0,0-25.78-20.02-50.04-3.77,0,0-33.36-11.31-48.9,7.07,0,0-40.18-3.77-47.76,10.84,0,0-79.61,16.25-28.81,18.14,0,0-162.12,16.25,51.81,11.31,0,0,34.27,1.27,82.4,1.5-19.94,3.85-15.44,7.49,101.58,4.78,0,0,93.51,3.45,188.53,0,95.02-3.45-3.54-9.42-9.1-8.48,0,0,.47-.24,1.19-.67,4.01-.08,8.15-.17,12.46-.27,0,0,93.51,3.45,188.53,0,95.02-3.45-3.54-9.42-9.1-8.48Z"/>
    <path class="s" d="m364.04,103.84s16.21-13.29-5.05-21.53c0,0,1.06-30.56-34.02-18.07,0,0-18.07-22.59-35.08-4.25,0,0-23.39-12.76-34.28,7.97,0,0-28.17-4.25-33.48,12.22,0,0-8.4,2.76-16.6,6.26-4.53-5.12-13-8.24-28.81-2.61,0,0-18.07-22.59-35.08-4.25,0,0-23.39-12.76-34.28,7.97,0,0-1.34-.2-3.48-.35-.78-3.16-3.7-6.44-10.72-9.16,0,0,1.06-30.56-34.02-18.07,0,0-18.07-22.59-35.08-4.25,0,0-23.39-12.76-34.28,7.97,0,0-28.17-4.25-33.48,12.22,0,0-55.81,18.34-20.2,20.46,0,0-113.65,18.34,36.32,12.76,0,0,32.51,1.93,75,1.72-7.33,4.31-9.54,8.44,6.26,9.39,0,0-113.65,18.34,36.32,12.76,0,0,65.55,3.9,132.17,0,66.62-3.9-2.48-10.63-6.38-9.57,0,0,5.21-4.27,5.84-9.48,5.14-.15,10.68-.33,16.63-.55,0,0,65.55,3.9,132.17,0,66.62-3.9-2.48-10.63-6.38-9.57Z"/>
  </g>
  <g id="j" data-name="bird main">
    <path class="p" d="m315.92,262.99s4.79-1.33,2.61,5.59c0,0-4.95,5.01,6.23-1.12l-1.83,3.97c7.66-5.56,18.23-12.17,18.23-12.17,20.77-10.44,9.48-8.47,9.48-8.47-14.06.27-23.91,5.7-23.91,5.7-5.7-7.03-21.04-5.33-21.04-5.33,3.09-.37,5.33,2.08,5.33,2.08-1.97-.85-8.41.37-8.41.37,3.62-.11,4.26,1.33,4.26,1.33-2.72-.91-7.03.21-7.03.21,2.5-.64,3.3,1.01,3.3,1.01-6.12-.69-8.2,3.57-8.2,3.57,7.99-2.08,3.57,2.08,3.57,2.08-4.58,3.04-7.08,9.11-7.08,9.11,1.97-2.18,4.53-2.34,4.53-2.34-3.72,2.08-5.25,4.18-5.87,5.69,4.19-2.25,19.82-13.88,25.84-11.28Z"/>
    <path class="p" d="m282.34,290.55c.49-1.6,1.11-3.51,1.79-5.45-.8,1.96-1.38,3.87-1.79,5.45Z"/>
    <path class="p" d="m252.48,346.68c.29-.76.39-1.36.39-1.36-.47.64-.54,1.07-.39,1.36Z"/>
    <path class="p" d="m404.59,313.53c-16.03,10.76-24.55,7.46-24.55,7.46,3.83-3.04-1.49-2.66-1.49-2.66-13.31,3.51-39.67-.53-39.67-.53-.71-1.36-2.31-2.47-4.46-3.38,2.17,1.09,3.89,2.44,4.94,4.11,0,0-35.5,9.09-53.25,2.41,0,0-7.53-3.27,6.82-10.22,0,0,1.82-.17,4.75-.33.47-.41.9-.81,1.31-1.22l-6.7,1.26s-14.4-7.82-17.25-14.7c-.89-.26-1.72-.48-2.53-.67-3.95,1.48-23.86,9.12-23.6,12.95,0,0-30.25,15.76-28.4,18.04s-6.67-1.28-1.85-12.78c.54-1.3,6.11-16.9,20.59-19.31,0,0,1.57-.1,3.68-.13-.08-.05-.13-.08-.13-.08-.7-.37-1.37-.72-2.05-1.08-3.59-.95-10.02-.12-10.02-.12-3.27.28-7.1-2.41-7.1-2.41-1.04-.81-2.23-1.26-3.37-1.5-2.22-.02-4.72-.06-4.72-.06,0,0,2.25-.46,4.72.06,3.84.04,6.85.02-5.29-.34-19.17-.57-33.8-20.88-33.66-23.57s6.39-2.13,6.39-2.13c.55.03,1.15.11,1.79.24-5.21-4.18-8.07-7.84-9.88-12.03-4.9-11.29-4.47.99-4.47.99-2.2-2.63-9.23-7.95-9.23-7.95-8.45-5.68-16.83-21.8-16.83-21.8-8.02-23.29-5.25-4.26-5.25-4.26-14.84-21.8-5.4-.71-5.4-.71-19.46-22.79-6.46,0-6.46,0-18.96-20.52-6.46,3.27-6.46,3.27-14.56-14.27-5.75,5.25-5.75,5.25-10.58-2.41-1.35,9.73-1.35,9.73-6.89.43-.99,9.8-.99,9.8-5.11,1.78,1.99,9.09,1.99,9.09-5.89,3.55,4.19,8.31,4.19,8.31-4.76,5.89,6.82,9.59,6.82,9.59-5.25,7.67,8.45,6.18,8.45,6.18-9.02,8.24.07,8.38.07,8.38-1.85,3.98,1.63,3.05,1.63,3.05-1.28,4.4,4.33,2.84,4.33,2.84-1.28,4.97,2.27,3.83,2.27,3.83-.92,3.05,4.97,2.2,4.97,2.2-1.78,4.4,1.92,3.34,1.92,3.34-2.56,3.83,2.91,3.41,2.91,3.41-.85,6.53,6.18,3.69,6.18,3.69-.71,5.54,1.92,4.33,1.92,4.33.07,2.41,3.91,3.48,3.91,3.48-.71,3.83,3.76,2.77,3.76,2.77.14,1.14.99,3.34.99,3.34,2.7.85,5.04-1.35,5.04-1.35.32,1.6,2.02,2.98,2.02,2.98,4.05-.21,8.09-3.94,8.09-3.94.11,1.7,2.77,2.88,2.77,2.88,3.3.32,5.22-4.37,5.22-4.37-.53,1.7,1.07,4.05,1.07,4.05,3.94-.32,8.09-4.47,8.09-4.47-1.17,2.34.32,7.24.32,7.24,5.33.43,2.34,2.24,2.34,2.24-20.66-.64-19.92.85-19.92.85-3.09,2.02,1.28,4.58,1.28,4.58-3.51.11-3.83,3.94-3.83,3.94,5.01,2.24,7.03,1.49,7.03,1.49-7.46,5.43-5.22,7.03-5.22,7.03,1.6,1.17,4.47.11,4.47.11-2.45.75-1.7,5.96-1.7,5.96,3.83.53,7.67-1.92,7.67-1.92-1.92,5.11-.53,8.63-.53,8.63,2.45,2.56,10.86-.11,10.86-.11-1.81,8.89,3.94-.11,3.94-.11,2.13,8.47,10.54-2.45,10.54-2.45,2.56,17.89,10.12-.53,10.12-.53,9.69,14.06,6.07-1.7,6.07-1.7,10.76,3.3,7.46-4.37,7.46-4.37,3.42,1.17,4.95-1.26,5.58-2.9-.15-.29-.08-.72.39-1.36,0,0-.1.6-.39,1.36.5.97,3.58.35,3.58.35-2.45,4.79,5.75,1.17,5.75,1.17-.32,5.86,6.71-.32,6.71-.32,2.88,5.64,7.88,1.49,7.88,1.49,4.37,1.92,6.71-.21,6.71-.21,3.09,1.6,7.24-.64,7.24-.64,3.73,1.28,7.78-1.6,7.78-1.6,3.62,1.28,5.43-.64,5.43-.64,3.83.32,5.96-.96,5.96-.96,4.37,1.92,9.05-.43,9.05-.43,6.07.11,10.44-2.02,10.44-2.02,5.75.32,10.33-2.24,10.33-2.24,5.01.85,12.67-3.2,12.67-3.2,10.65-.85,11.61-4.47,11.61-4.47,8.52.32,15.12-5.01,15.12-5.01,48.57,3.41,53.04-14.06,53.04-14.06,4.1-5.86-27.21-.37-27.21-.37Z"/>
  </g>
  <g id="k" data-name="bird highlight">
    <path class="x" d="m155.82,238.51c-4.04-2.78-9.64-7.09-13.61-10.08-3.42-2.51-6.8-5.06-9.73-8.15-.99-1.02-1.97-2.04-2.82-3.24l.15-.13c4.89,2.88,9.27,6.42,13.41,10.28,0,0,12.7,11.15,12.7,11.15l-.1.17h0Z"/>
    <path class="x" d="m155.68,242.62c-4.33-2.52-12.93-7.72-17.18-10.37-5.37-3.25-10.79-6.61-15.16-11.19-.29-.33-.59-.62-.79-1.06l.18-.09c2.64,1.87,5.76,3.45,8.46,5.25,2.83,1.76,5.46,3.84,8.19,5.76l16.4,11.54-.11.17h0Z"/>
    <path class="x" d="m154.39,245.66c-5.39-2.15-13.1-5.53-18.49-7.92-4.65-1.95-9.27-3.97-13.38-6.97-1.38-.99-2.77-1.97-3.95-3.31l.19-.23c3.18,1.07,6.35,2.22,9.39,3.59,3.07,1.32,5.88,3.17,8.82,4.78l8.79,4.85,8.75,4.95-.13.27h0Z"/>
    <path class="x" d="m154.92,250.8c-5.94-1.85-12.07-3.52-18-5.49-2.99-.97-6.1-1.64-8.92-3.09-2.88-1.53-5.75-3-7.9-5.63,0,0,.26-.3.26-.3,4.62.92,9.25,1.89,13.48,3.98,4.19,2.15,8.53,3.95,12.79,5.99,0,0,4.25,2.04,4.25,2.04,1.42.69,2.82,1.34,4.24,2.17l-.21.34h0Z"/>
    <path class="x" d="m156.97,254.4c-5.19-.91-12.4-2.28-17.51-3.15-6.04-.69-11.43-2.13-17.26-3.77,0,0-.04-.3-.04-.3.72-.26,1.52-.44,2.29-.51,5.31-.6,10.51.71,15.53,2.24,5.74,1.58,11.44,3.27,17.07,5.2l-.08.29h0Z"/>
    <path class="x" d="m160.19,258.4c-9.53-.87-19.11-1.41-28.66-1.9-2.69-.11-6.8-.87-9.41-.35,0,0-.11-.17-.11-.17.69-.53,1.54-.71,2.33-.91,5.59-1.1,11.3-.43,16.87.31,6.36.76,12.69,1.72,19,2.82,0,0-.03.2-.03.2h0Z"/>
    <path class="x" d="m161.59,262.56c-5.17.29-12.37.63-17.45.96-4.19.36-8.81.67-13.04.61-1.22.05-3.12-.07-4.28.23,0,0-.12-.16-.12-.16.63-.51,1.37-.71,2.08-.94,4.98-1.42,10.18-1.44,15.3-1.33,5.84.03,11.67.15,17.5.44v.2h0Z"/>
    <path class="x" d="m150.85,266.82c-2.76.63-6.63,1.43-9.34,2.09-3.05.98-6.1,1.34-9.25,1.83,0,0-.12-.16-.12-.16,2.29-2.52,5.92-2.94,9.1-3.25,3.19-.37,6.38-.63,9.59-.72l.02.2h0Z"/>
    <path class="x" d="m157.77,270.44c-4.63,1.15-9.22,2.4-13.73,3.8-1.25.36-3.25.57-4.31,1.36,0,0-.18-.08-.18-.08.15-.92.97-1.52,1.66-2.03,2.07-1.45,4.56-1.88,6.98-2.2,3.17-.51,6.35-.83,9.55-1.05,0,0,.04.2.04.2h0Z"/>
    <path class="x" d="m160.42,275.66c-7.01,1.89-14.59,4.66-20.58,8.79,0,0-.17-.11-.17-.11.18-.46.39-.93.65-1.38,2-2.93,5.49-4.34,8.77-5.23,3.72-1.09,7.46-1.91,11.33-2.28,0,0,0,.2,0,.2h0Z"/>
    <path class="x" d="m162.02,280.56c-4.7,1.85-9.11,4.69-13.46,7.21-1.23.71-3.28,1.47-4.23,2.51,0,0-.19-.05-.19-.05.03-.98.74-1.75,1.34-2.43,1.83-1.99,4.29-3.09,6.71-4.07,3.22-1.31,6.39-2.73,9.83-3.37,0,0,0,.2,0,.2h0Z"/>
    <path class="x" d="m167.04,284.07c-4.43,2.37-8.69,5.39-12.44,8.7-1.24,1.04-2.58,1.95-3.13,3.55,0,0-.2.02-.2.02-.35-.9-.06-1.97.36-2.8,1.23-2.49,3.64-4.01,5.94-5.3,3.05-1.73,6.1-3.29,9.45-4.37,0,0,.03.2.03.2h0Z"/>
    <path class="x" d="m170.16,288.32c-4.05,2.88-7.94,6.14-11.17,9.89-1.09,1.18-2.17,2.26-2.73,3.87h-.2c-.89-3.7,2.57-6.75,5.26-8.66,2.76-2.05,5.68-3.8,8.75-5.27l.1.17h0Z"/>
    <path class="x" d="m174.54,292.57c-3.44,3.34-6.7,6.94-9.7,10.64-1,1.16-2.23,2.16-2.72,3.65,0,0-.2.03-.2.03-.39-.86-.14-1.86.15-2.65.87-2.44,2.77-4.2,4.66-5.81,2.44-2.18,5-4.19,7.69-6.01l.13.16h0Z"/>
    <path class="x" d="m177.92,297.75c-3.33,2.91-6.52,6.17-8.68,10.04-.72,1.25-1.33,2.56-1.32,4.07l-.1.02c-1.03-3.08,1.26-6.13,3.23-8.26,1.96-2.05,4.54-4.61,6.86-5.87h0Z"/>
    <path class="x" d="m182.71,300.73c-3.84,3.84-7.5,7.99-10.15,12.74-.85,1.55-1.68,3.17-1.55,5l-.1.03c-1.17-3.73,1.73-7.34,3.94-10.06,2.38-2.71,5.07-5.72,7.86-7.7h0Z"/>
    <path class="x" d="m188.95,304.47c-3.46,3.37-6.4,7.52-8.38,11.93-.66,1.46-1.21,2.97-1.14,4.63l-.1.02c-1.47-5.09,3-9.65,5.98-13.27,1.19-1.2,2.24-2.5,3.67-3.41,0,0-.03.09-.03.09h0Z"/>
    <path class="x" d="m195.56,306.6c-1.89,1.38-3.33,3.52-4.68,5.42-1.11,2.03-2.66,4.03-2.51,6.44,0,0-.09.04-.09.04-1.75-3.55,2.21-7.28,4.39-9.71.93-.82,1.75-1.83,2.91-2.29,0,0-.02.1-.02.1h0Z"/>
    <path class="x" d="m200.06,307.88c-.43.34-.61.98-.85,1.51-1.13,2.8-1.91,5.78-3.59,8.33-.72.98-1.66,1.98-2.9,2.3l-.04-.09c2.9-2.99,4.35-7.03,6.27-10.67.32-.53.53-1.14,1.09-1.47,0,0,.03.09.03.09h0Z"/>
    <path class="x" d="m205.31,308.25c.41,3.24.15,8.81-3.28,10.19.9-1.64,1.67-3.1,2.32-4.82.55-1.72.84-3.55.86-5.36,0,0,.1,0,.1,0h0Z"/>
    <path class="x" d="m208.17,333.38c-2.06,1-4.1,2.04-6.1,3.08-1.99,1.26-3.85,2.16-6.22,2.65,0,0-.13-.15-.13-.15,1.15-2.27,3.42-3.33,5.71-3.96,2.18-.77,4.41-1.36,6.68-1.81,0,0,.06.19.06.19h0Z"/>
    <path class="x" d="m205.84,339.02c-1.34,1.06-4.06,3.14-5.42,4.16-1.77,1.55-3.58,2.74-5.96,3.29,0,0-.13-.15-.13-.15,1.08-2.26,3.08-3.5,5.23-4.48,2.02-1.09,4.08-2.08,6.18-2.98,0,0,.1.17.1.17h0Z"/>
    <path class="x" d="m218.4,333.21c3.6-3.31,10.92-9.85,14.62-13.05,3.66-3.27,7.38-6.5,11.62-9.04,1.42-.84,2.84-1.71,4.46-2.21l.08.18c-4.95,4.22-9.82,8.54-15.15,12.3,0,0-15.51,11.96-15.51,11.96l-.12-.16h0Z"/>
    <path class="x" d="m218.12,336.44c-1.77,3.46-3.65,6.92-5.73,10.23-1.52,2.55-3.16,5.12-5.65,6.88-.82.59-1.77,1.17-2.84,1.24l-.06-.19c1.49-1.21,2.46-2.84,3.61-4.35,1.1-1.55,2.44-2.95,3.62-4.49,2.39-3.09,4.57-6.29,6.88-9.45,0,0,.16.12.16.12h0Z"/>
    <path class="x" d="m219.69,344.44c-.44,1.79-1.01,4.23-1.7,5.93-.49,1.52-1.24,3.14-2.7,4-.51.31-1.09.52-1.68.52,0,0-.09-.18-.09-.18.6-.94.96-1.74,1.41-2.6,1.02-1.64,2.24-3.28,3.1-5.09.49-.85.94-1.93,1.55-2.75,0,0,.11.17.11.17h0Z"/>
    <path class="x" d="m230.39,343.72c.22,2.55.2,5.09.04,7.65-.08,1.6-.17,3.3-.94,4.77-.47.92-1.08,1.83-2,2.34,0,0-.15-.13-.15-.13.51-3.76,1.59-7.17,2.22-10.9.24-1.24.42-2.49.63-3.74h.2Z"/>
    <path class="x" d="m231.86,341c1.73,2.03,3.27,4.19,4.67,6.49,1.12,1.71,2.18,3.6,2.13,5.75,0,.71-.13,1.53-.61,2.12l-.19-.06c-.24-1.31-.86-2.33-1.37-3.49-.97-2.35-1.79-4.87-3.02-7.15-.56-1.19-1.17-2.36-1.77-3.54l.17-.11h0Z"/>
    <path class="x" d="m239.53,341.54c1.46,1.58,3.14,3.48,3.9,5.49.15.76.19,1.57-.16,2.42l-.19.05c-1.35-1.05-1.83-2.21-2.18-3.76-.49-1.34-.97-2.72-1.54-4.09l.17-.11h0Z"/>
    <path class="x" d="m342.42,328.66c-.84,2.4-1.45,5.07-2.88,7.21-.59.66-1.28,1.26-2.23,1.6l-.16-.12c.15-1.93.99-3.23,2.17-4.6.9-1.26,1.98-3,2.95-4.21,0,0,.16.12.16.12h0Z"/>
    <path class="x" d="m351.51,325.47c.34,1.56.54,3.14.56,4.75.1,1.24.06,2.59-.84,3.6-.29.35-.68.69-1.16.81l-.15-.14c-.04-1.73-.02-2.86.56-4.44.31-1.51.59-3.05.84-4.58,0,0,.2,0,.2,0h0Z"/>
    <path class="x" d="m358.31,323.72c1.06,1.14,1.98,2.39,2.7,3.78.81,1.21,1.28,2.97.28,4.25-.17.18-.36.35-.57.45l-.17-.1c-.17-.87-.44-1.35-.66-1.99-.25-.6-.19-1.33-.37-2.03-.38-1.42-.85-2.85-1.38-4.25,0,0,.17-.11.17-.11h0Z"/>
    <path class="x" d="m367.81,323.13c.78.41,2.34,1.25,3.11,1.68.5.28,1.11.4,1.48.81.41.4.64.85,1.03,1.46v.2c-.67.44-1.47.26-2.12.02-.93-.45-1.82-1.79-2.56-2.57-.36-.48-.74-.94-1.07-1.45l.13-.15h0Z"/>
  </g>
  <g id="l" data-name="yellow bits">
    <path class="v" d="m161.27,271.83c2.02-3.85,7.8-4.26,11.68-4.34.62.03,1.23.04,1.85.08-1.23.12-2.45.2-3.67.35-3.43.54-7.65.89-9.86,3.91h0Z"/>
    <path class="v" d="m163.3,274.92c3.03-3.25,7.58-5.16,12.04-4.9-4.4.45-8.54,2.19-12.04,4.9h0Z"/>
    <path class="v" d="m165.43,278.22c2.06-3.26,6-5.54,9.91-5.22-3.82.4-7.3,2.44-9.91,5.22h0Z"/>
    <path class="v" d="m168.41,280.46c.81-3.45,4.47-5.59,7.88-5.33-3.29.47-6.42,2.24-7.88,5.33h0Z"/>
    <path class="v" d="m169.47,283.97c2.02-3.11,4.93-7.24,9.16-6.6-4.15.11-6.54,3.93-9.16,6.6h0Z"/>
    <path class="v" d="m172.03,287.06c2.02-2.81,5.97-7.56,9.8-7.03-1.05-.04-2.01.4-2.87.92-2.61,1.66-4.74,3.91-6.93,6.11h0Z"/>
    <path class="v" d="m175.86,290.04c1.31-2.7,4.21-7.31,7.67-6.82-.91-.03-1.71.4-2.41.9-2.12,1.61-3.65,3.8-5.26,5.92h0Z"/>
    <path class="v" d="m180.34,293.34c.52-3.19,2.91-6.94,6.5-6.82-3.39.61-5.28,3.88-6.5,6.82h0Z"/>
    <path class="v" d="m184.28,296.11c1.78-2.6,4.06-4.82,6.5-6.82-1.95,2.48-4.2,4.66-6.5,6.82h0Z"/>
    <path class="v" d="m188.96,299.09c1.89-2.89,3.74-6.08,6.71-7.99-2.44,2.34-4.34,5.59-6.71,7.99h0Z"/>
    <path class="v" d="m194.82,302.5c.39-2.53,1.83-9.24,4.9-9.48-.94.16-1.47,1.02-1.91,1.78-1.31,2.43-2.03,5.1-2.99,7.7h0Z"/>
    <path class="v" d="m200.89,305.59c-.28-3.68-.15-8.47,3.09-10.86-2.69,2.88-2.64,7.15-3.09,10.86h0Z"/>
    <path class="v" d="m206.54,306.12c-.69-2.19-2.1-8.21.11-9.69-.65.55-.66,1.47-.7,2.26-.03,2.49.38,4.94.6,7.44h0Z"/>
    <path class="v" d="m211.44,302.29c-.63-2.17-.78-4.45-.64-6.71.55,2.2.68,4.45.64,6.71h0Z"/>
    <path class="v" d="m271.93,330.62c1.41-.63,3.04-.28,4.49-.81,4.39-1.34,8.18-4.03,12.13-6.33-3.65,2.78-7.54,5.52-12.04,6.7-1.51.45-3.1.01-4.58.44h0Z"/>
    <path class="v" d="m280.46,333.18c4.2-3.23,8.76-5.96,12.67-9.59-3.44,4.12-8.11,6.91-12.67,9.59h0Z"/>
    <path class="v" d="m285.78,333.5c3.76-3.47,8.76-5.79,12.25-9.59-3.06,4.32-8.03,6.61-12.25,9.59h0Z"/>
    <path class="v" d="m291.85,333.82c2.93-2.85,6.41-5.38,9.16-8.41-2.25,3.51-5.77,6.07-9.16,8.41h0Z"/>
    <path class="v" d="m298.88,333.18c1.57-2.41,3.85-4.41,5.43-6.82-1,2.78-3.33,4.84-5.43,6.82h0Z"/>
    <path class="v" d="m302.93,332.75c2.11-2.42,5.32-4.11,6.82-7.03-.86,3.23-4.29,5.16-6.82,7.03h0Z"/>
    <path class="v" d="m307.4,332.86c2.17-2.25,4.79-4.22,6.07-7.14-.61,3.18-3.49,5.46-6.07,7.14h0Z"/>
    <path class="v" d="m314.01,332.64c3.03-2.97,5.94-6.06,7.99-9.8-1.41,4.05-4.52,7.37-7.99,9.8h0Z"/>
    <path class="v" d="m319.44,332.64c.51-.97,1.4-1.65,2.15-2.4,2.18-2.15,5.06-4.29,6.26-7.18-.76,3.21-3.62,5.42-6.01,7.47-.7.62-1.86,1.37-2.41,2.12h0Z"/>
    <path class="v" d="m325.83,332.22c3.01-2.8,6.54-5.23,8.63-8.84-1.46,3.94-5.22,6.62-8.63,8.84h0Z"/>
    <path class="v" d="m334.88,329.77c1.86-2,4.53-3.42,5.54-6.07-.33,2.9-3.28,4.66-5.54,6.07h0Z"/>
    <path class="v" d="m378.99,327.71c3.64-2.49,8.17-4.49,12.18-6.71,10.33-5.72,21.31-8.57,32.91-9.23,2.49-.14,8.66-.15,6.21-.36-21.97-1.86-31.23,3.3-44.13,11.36l-7.17,4.93Z"/>
    <path class="v" d="m323.03,259.19c.58,2.54-3,3.49-3.7.86-.51-2.69,3.09-3.4,3.7-.86h0Zm0,0c-.54-1.98-3.17-1.29-2.73.63.45,1.93,3.12,1.39,2.73-.63h0Z"/>
    <path class="v" d="m319.12,269.7c8.24-7.92,18.7-13.43,29.72-16.35-10.54,4.22-20.62,9.51-29.72,16.35h0Z"/>
  </g>
  <g id="m" data-name="red bits">
    <g>
      <path class="w" d="m181.3,264.69c-.14,2.7,14.49,23.01,33.66,23.57,12.14.36,9.13.38,5.29.34,1.15.24,2.34.69,3.37,1.5,0,0,3.83,2.7,7.1,2.41,0,0,6.43-.83,10.02.12-27.54-14.56-42.64-22.92-51.26-29.85-.64-.13-1.24-.21-1.79-.24,0,0-6.25-.57-6.39,2.13Z"/>
      <path class="w" d="m218.64,313.26c-4.83,11.5,3.69,15.05,1.85,12.78s28.4-18.04,28.4-18.04c-.26-3.84,19.66-11.48,23.6-12.95-8.87-2.12-13.2-.43-13.2-.43-9.76,3.04-15.52-.25-16.38-.8-2.1.03-3.68.13-3.68.13-14.49,2.41-20.05,18.02-20.59,19.31Z"/>
      <path class="w" d="m286.1,320.93c17.75,6.67,53.25-2.41,53.25-2.41-1.05-1.67-2.77-3.02-4.94-4.11-10.99-4.65-36.76-4.02-36.76-4.02,0,0,0,0,.01,0-2.93.16-4.75.33-4.75.33-14.34,6.96-6.82,10.22-6.82,10.22Z"/>
      <path class="w" d="m292.28,310.42l6.7-1.26c7.22-7.14,5.66-13.58,5.66-13.58,4.74-10.49,7.67-13.58,10.92-17.95,1.02-1.37,3.9-3.67,7.38-6.2l1.83-3.97c-11.18,6.12-6.23,1.12-6.23,1.12,2.18-6.92-2.61-5.59-2.61-5.59-6.02-2.6-21.66,9.03-25.84,11.28-.56,1.35-.4,2.24-.4,2.24-2.5,2.27-4.29,5.49-5.55,8.58-.68,1.94-1.3,3.85-1.79,5.45-.62,2.38-.86,4.04-.86,4.04-1.63,2.31-6.21,1.21-6.21,1.21-.08-.03-.16-.04-.24-.07,2.85,6.88,17.25,14.7,17.25,14.7Z"/>
    </g>
  </g>
  <g id="n" data-name="Branch">
    <path class="u" d="m532.28,435.99c-11.65.48-27.25,1.47-37.08,1.58-7.83,4.52-20.08,11.46-28.06,16.05,0,0-28.06,16.05-28.06,16.05l-.2.12c-6.93.39-13.87.92-20.79,1.53-13.65,1.27-27.34,2.77-40.77,5.51-6.4,1.47-13.54,2.81-18.92,6.57,0,0-.31.23-.31.23h-.34s-35.69-.57-35.69-.57c.84-.09-38.26,6.69-38.13,6.69,0,0-.24.04-.24.04l-.24-.08c-3.02-1-7.99-2.56-10.98-3.7-7.25-2.54-25.36-9.08-32.75-11.71,10.54,3.18,28.6,8.47,38.86,11.68,0,0,5.5,1.83,5.5,1.83-2.81.18,38.64-6.78,37.84-6.74.06-.03,35.77.55,35.88.55,0,0-.65.22-.65.22,5.97-4.16,12.92-5.37,19.77-6.97,13.54-2.77,27.26-4.27,41-5.55,6.87-.61,13.73-1.14,20.62-1.53l-.44.13c9.08-5.2,33.26-19.02,42.09-24.08,3.91-2.22,10.1-5.83,14.03-8.02,12.6-.29,25.4.11,38.07.16h0Z"/>
    <path class="u" d="m273.93,493.61c.4-1.15.9-1.71,2.02-2.11,0,0,2.46-1.21,2.46-1.21.81-.4,2.9-1.43,3.69-1.82.54.07,1.08.13,1.67.29-.23.56-.51,1.03-.79,1.5-.77.38-2.89,1.42-3.69,1.82,0,0-2.46,1.21-2.46,1.21-.99.64-1.75.7-2.9.31h0Z"/>
    <path class="u" d="m338.68,492.79c.49-.86,1.12-1.61,1.75-2.34l2.38-1.36c2.75-1.55,6.8-3.57,9.65-5,0,0,2.44-1.19,2.44-1.19,3.36-.42,3.34-.61.87,1.8-1.53.73-5.67,2.82-7.24,3.62-3.49,1.58-6.22,4.03-9.85,4.48h0Z"/>
    <path class="u" d="m329.74,489.83c-.29-1.06-.29-1.61.41-2.42,0,0,1.24-1.87,1.24-1.87.41-.61,1.47-2.21,1.87-2.8.46-.14.91-.29,1.45-.38.13.53.16,1.01.21,1.49-.39.59-1.46,2.19-1.87,2.8,0,0-1.24,1.87-1.24,1.87-.48.96-.99,1.18-2.08,1.31h0Z"/>
    <path class="u" d="m405.65,498.69c2.77-2.68,5.84-4.81,9.09-6.83,7.6-5.25,15.57-10.71,20.88-18.38,1.22-1.36,2.31-2.85,2.96-4.68.32,4.03-2.23,7.6-4.91,10.34-2.64,2.82-5.55,5.33-8.55,7.7-3.01,2.36-6.11,4.57-9.28,6.68-3.14,2.24-6.46,4.11-10.2,5.17h0Z"/>
    <path class="u" d="m467.55,421.37c2.78-.18,5.26.89,7.66,2.11,5.94,2.88,11.9,5.82,17.25,9.73.9,1.02,1.77,2.22,2.24,3.48-.59-.39-1.08-.77-1.69-1.05-.43-.24-1.3-.66-1.76-.84-3.09-2.31-6.5-4.19-9.92-6.02-3.44-1.82-6.95-3.56-10.53-5.1-.94-.65-2.27-1.75-3.26-2.31h0Z"/>
    <path class="u" d="m422.76,495.1c-.87-.16-1.31-.28-1.41-1.17-.18-.73-.5-2.22-.64-2.96,0,0-.14-.74-.14-.74.25-.3.5-.6.85-.91.44.17.77.36,1.12.55.08.46.33,1.69.43,2.16.11.47.35,1.64.52,2.08,0,0-.72.99-.72.99h0Z"/>
    <path class="u" d="m522,326.2c-6.52-11.04-13.41-22.03-19.61-33.18-.14-4.7-.11-11.89-.21-16.7-.13-10.4-.48-39.28-.62-50.1,0,0,.11.45.11.45-3.2-6.26-6.27-12.57-9.26-18.92-6.36-14.08-21.43-45.42-20.19-59.9,0,0,.14.66.14.66-.07-.1-18.81-30.9-18.84-31.01,0,0-13.79-37.17-13.79-37.17l.28.41-4.4-3.79c-8.01-7.23-22.01-20.05-30.06-27.4,6.2,5.06,21.01,17.28,26.93,22.15,2.52,2.06,6.36,5.31,8.84,7.53,0,0,.19.17.19.17l.09.24c-.04-.05,14.05,37.77,13.71,37,0,0,18.76,30.84,18.76,30.84l.18.29-.04.38c-.51,6.69,1.93,13.64,3.93,20.05,4.47,13.23,10.18,26.05,16.09,38.71,3.01,6.4,6.12,12.78,9.34,19.07v.23s.41,33.4.41,33.4c.08,9.44.35,24.02.4,33.4,4.95,8.66,12.06,22.75,17.62,33.2h0Z"/>
    <path class="u" d="m439.84,68.72c.91.81,1.26,1.57,1.2,2.75,0,0,.21,2.82.21,2.82.06.93.24,3.33.31,4.23-.27.49-.53.98-.89,1.48-.43-.44-.76-.89-1.1-1.34-.07-.89-.24-3.31-.31-4.23,0,0-.21-2.82-.21-2.82-.22-1.15,0-1.96.79-2.89h0Z"/>
    <path class="u" d="m472.27,125.69c1.46,3.48.73,7.29,1.14,11.11.11,1.83.41,6.57.56,8.34-.83,3.41-.61,3.46-1.99.16,0,0-.21-2.79-.21-2.79-.21-3.31-.53-7.93-.59-11.2,0,0-.04-2.83-.04-2.83.31-.94.64-1.89,1.13-2.78h0Z"/>
    <path class="u" d="m465.12,119.53c.44,1.04.5,1.61-.08,2.54,0,0-.99,2.12-.99,2.12-.33.7-1.17,2.51-1.48,3.18-.44.23-.87.45-1.4.64-.2-.52-.3-1-.41-1.48.31-.67,1.16-2.49,1.48-3.18,0,0,.99-2.12.99-2.12.34-1.04.82-1.37,1.89-1.7h0Z"/>
    <path class="u" d="m511.68,180.89c.99,3.9,1.05,7.85.72,11.84-.21,3.95-.55,7.89-1.06,11.82-.53,3.93-1.22,7.85-2.32,11.7-1.01,3.85-2.79,7.99-6.46,9.97,1.24-1.58,1.98-3.35,2.54-5.17,3.95-8.86,4.62-18.84,5.3-28.43.09-3.97.37-7.84,1.28-11.73h0Z"/>
    <path class="u" d="m476.15,277.81c.99.57,2.6,1.13,3.66,1.6,3.17,2.26,6.48,4.36,9.82,6.36,3.34,1.97,6.73,3.9,10.31,5.32.39.29,1.22.82,1.64,1.05.56.38,1.14.58,1.78.88-1.32.28-2.8.17-4.14-.06-6.15-2.5-11.76-6.08-17.31-9.67-2.28-1.42-4.53-3.01-5.77-5.48h0Z"/>
    <path class="u" d="m517.32,197.82l-.46,1.15c-.23.04-.45.13-.69.21-.7.24-2.1.77-2.79,1.04,0,0-.7.28-.7.28-.35-.19-.69-.36-1.08-.64.08-.47.2-.84.32-1.22.45-.19,1.68-.66,2.14-.84.73-.28,1.47-.53,2.23-.78.34.21.7.43,1.02.79h0Z"/>
    <path class="u" d="m-82.15,275.14c8.01-8.86,18.47-21.02,25.44-28.26,2.15-9.09,5.62-23.22,7.83-32.47,0,0,7.83-32.47,7.83-32.47l.06-.24c4.68-5.37,9.26-10.84,13.75-16.37,8.83-10.94,17.51-22.1,25.04-33.97,3.47-5.78,7.55-12.02,8.51-18.69,0,0,.04-.39.04-.39l.25-.25,26.03-25.71c-.54.69,22.32-32.98,22.23-32.88,0,0,.14-.21.14-.21l.23-.12c2.94-1.47,7.69-3.95,10.71-5.3,7.14-3.42,25.11-11.85,32.42-15.31-10.01,5.34-27.05,14.61-36.88,19.73,0,0-5.34,2.67-5.34,2.67,1.92-2.24-22.54,33.35-21.98,32.7-.02.07-26.08,25.78-26.16,25.86,0,0,.29-.64.29-.64-1.88,14.31-24.45,41.66-33.99,53.77-4.46,5.49-8.99,10.9-13.64,16.25l.22-.43c-2.53,10.52-9.28,38.47-11.74,48.7-1.11,4.52-2.77,11.72-3.92,16.23-8.8,9.45-18.28,18.54-27.38,27.8h0Z"/>
    <path class="u" d="m59.04,43.19c.56,1.09.6,1.92.12,3,0,0-.84,2.7-.84,2.7-.28.89-.98,3.19-1.25,4.05-.43.36-.85.72-1.37,1.05-.24-.57-.39-1.11-.54-1.65.26-.85.98-3.17,1.25-4.05,0,0,.84-2.7.84-2.7.21-1.16.72-1.83,1.79-2.41h0Z"/>
    <path class="u" d="m13.22,91.2c.29.98.4,1.98.49,2.96l-.67,2.75c-.79,3.16-2.14,7.63-3.09,10.79,0,0-.83,2.67-.83,2.67-2.07,2.85-1.88,2.98-1.91-.6.54-1.67,1.91-6.25,2.43-8,1.26-3.65,1.39-7.49,3.59-10.58h0Z"/>
    <path class="u" d="m21.9,86.85c.99.55,1.39.97,1.51,2.07,0,0,.54,2.3.54,2.3.17.76.64,2.72.81,3.45-.21.45-.4.9-.7,1.38-.48-.29-.86-.61-1.24-.92-.17-.72-.63-2.7-.81-3.45,0,0-.54-2.3-.54-2.3-.38-1.03-.21-1.6.43-2.53h0Z"/>
    <path class="u" d="m111.84,549.32c-3.61-6.56-9.47-16.52-11.9-21.57-5.11-3.31-12.99-8.59-18.18-11.98,0,0-18.18-11.98-18.18-11.98l-.2-.13c-4.52-8.07-9.28-16.04-14.36-23.77-2.53-3.82-5.13-7.59-7.94-11.19-2.72-3.34-5.68-7.24-9.44-9.25,0,0-.35-.17-.35-.17l-.15-.32-10.01-21.65c.5.78-15.29-21-15.21-20.85,0,0-.15-.21-.15-.21l-.03-.26c-.26-2.13-.73-5.59-.85-7.74-.59-7.48-1.37-15.85-1.9-23.31,1.23,7.36,2.54,15.66,3.72,23.09.4,2.15.76,5.5,1.02,7.72,0,0-.18-.47-.18-.47.06.08,15.32,21.02,15.37,21.1-.02,0,10.05,21.71,10.05,21.74,0,0-.5-.49-.5-.49,10.42,5.58,26.11,33.73,32.57,44.85,0,0-.33-.35-.33-.35,5.89,3.88,21.54,14.21,27.27,17.98,2.63,1.77,6.74,4.35,9.33,6.17,3.51,7.69,7.11,15.33,10.55,23.05h0Z"/>
    <path class="u" d="m.83,411.43c.96-.27,1.36-.39,2.07.31,0,0,1.47,1.11,1.47,1.11.48.37,1.74,1.31,2.21,1.66.06.43.13.85.13,1.35-.49.14-.91.19-1.34.24-.46-.35-1.73-1.3-2.21-1.66,0,0-1.47-1.11-1.47-1.11-.86-.49-.87-.91-.87-1.91h0Z"/>
    <path class="u" d="m20.13,450.15c.73-.09,1.43-.02,2.11.06l1.55,1.03c1.77,1.19,4.21,3.01,5.95,4.29,0,0,1.46,1.1,1.46,1.1,1.07,2.16,1.18,2.07-1.21,1.59-.9-.7-3.41-2.55-4.36-3.25-2.06-1.73-4.46-2.36-5.49-4.82h0Z"/>
    <path class="u" d="m19.39,443.87c.3-.38.59-.65.88-.91.51.08,1.77.21,2.29.28.5.06,1.81.21,2.29.27.22.33.44.65.65,1.08-.3.37-.59.63-.88.9-.48-.05-1.79-.21-2.29-.27-.53-.06-1.78-.22-2.3-.26-.22-.33-.44-.65-.65-1.09h0Z"/>
    <path class="u" d="m35.88,492.27c2.61.59,4.85,1.72,7.09,3.13,2.22,1.25,4.48,2.43,6.79,3.49,4.59,2.14,9.35,3.6,14.38,4.07-2.27,1.7-5.33,1.38-7.86.54-2.55-.72-4.98-1.71-7.35-2.8-2.36-1.09-4.67-2.29-6.93-3.57-2.38-1.2-4.5-2.69-6.11-4.87h0Z"/>
    <path class="u" d="m102.19,505.9c.59.81.88,1.74,1.21,2.62v2.69c-.03,3.59-.17,7.15-.63,10.73-.13,1.89-.67,3.82-2.28,4.99-.02-2.14-.15-3.1.3-5.25.44-3.46.58-6.99.62-10.48-.13-2.05.11-3.36.79-5.29h0Z"/>
    <path class="u" d="m43.09,501.47c-.2-.4-.25-.77-.31-1.11.29-.24.96-.78,1.27-1.02.28-.21.99-.75,1.26-.94.32.14.63.28,1.01.51.09.43.13.77.17,1.11-.26.19-.96.71-1.22.91-.26.21-.92.7-1.14.94-.32-.12-.61-.24-1.04-.39h0Z"/>
  </g>
  <g id="o" data-name="leaf">
    <path class="q" d="m410.76,535c5.05,18.99,18.44,31.5,30.04,33.95,9.02-6.44,16.74-26.06,11.69-45.05-5.05-18.99-18-29.36-30-28.83-10.81,5.55-16.77,20.94-11.72,39.93Z"/>
    <path class="q" d="m366.81,489.72c-18.87,5.48-31.08,19.15-33.27,30.79,6.64,8.87,26.43,16.14,45.3,10.67,18.87-5.48,28.94-18.66,28.15-30.65-5.79-10.68-21.31-16.29-40.18-10.82Z"/>
    <path class="q" d="m286.66,515.8c-12.23,21.71-11.15,44.93-2.79,57.42,13.89,2.14,38.27-8.84,50.5-30.55,12.23-21.71,9.65-42.6-1.71-52.75-14.73-4.53-33.77,4.17-45.99,25.88Z"/>
    <path class="q" d="m222.98,492.8c-21.45,12.67-32.15,33.32-31.16,48.31,10.95,8.8,37.56,11.5,59.01-1.17,21.45-12.67,29.67-32.05,24.92-46.52-10.48-11.3-31.32-13.3-52.77-.62Z"/>
    <path class="q" d="m297.17,423.3c-21.33-17.72-46.96-21.18-62.3-14.52-5.11,14.78,2.04,43.66,23.37,61.38,21.33,17.72,44.7,19.06,58.08,8.65,7.9-15.21,2.18-37.79-19.15-55.51Z"/>
    <path class="q" d="m223.59,425.76c-18.75-15.58-41.29-18.62-54.78-12.76-4.5,12.99,1.8,38.38,20.55,53.96,18.75,15.58,39.3,16.76,51.06,7.61,6.95-13.38,1.92-33.23-16.83-48.81Z"/>
    <path class="q" d="m361.99,453.24c1.31-15.72-6.68-28.9-16.13-33.99-9.88,2.33-22.6,14.95-23.9,30.67-1.31,15.72,6.95,27.16,17.65,30.13,11.18-1.15,21.07-11.08,22.38-26.8Z"/>
    <path class="q" d="m403.64,460.23c-13.82-4.79-27.12-1.73-33.46,4.41.22,8.25,9.12,21.17,22.94,25.96,13.82,4.79,25.61,1.1,30.28-6.52,1.07-8.98-5.95-19.06-19.77-23.85Z"/>
    <path class="q" d="m503.47,415.1c5.45-9.02,5.3-18.86,1.93-24.25-5.85-1.09-16.3,3.24-21.76,12.27-5.45,9.02-4.63,17.89.04,22.33,6.17,2.11,14.34-1.32,19.79-10.35Z"/>
    <path class="q" d="m467,384.53c-9.14-14.45-23.52-21.36-33.79-20.37-5.81,7.7-7.11,26,2.03,40.45,9.14,14.45,22.6,19.69,32.43,16.13,7.53-7.42,8.47-21.76-.67-36.21Z"/>
    <path class="q" d="m437.36,418.41c-18.09,5.08-29.89,18.05-32.07,29.18,6.28,8.54,25.15,15.66,43.24,10.58,18.09-5.08,27.84-17.61,27.18-29.08-5.45-10.26-20.25-15.76-38.34-10.68Z"/>
    <path class="q" d="m484.01,151.95c-4.9-19.51.73-37.75,9.74-46.12,11.11.88,27.57,14.12,32.46,33.63,4.9,19.51-1.41,35.62-12.23,41.57-12.25.87-25.07-9.57-29.97-29.08Z"/>
    <path class="q" d="m465.65,67.52c12.62-22.72,33.36-34.66,48.5-34.29,8.97,10.94,11.9,38.31-.71,61.03-12.62,22.72-32.1,32.05-46.74,27.76-11.48-10.34-13.66-31.79-1.05-54.5Z"/>
    <path class="q" d="m413.06,24.69c.04-25.76,12.51-46.54,26.05-54,13.26,4.68,29.22,26.41,29.19,52.16-.04,25.76-12.67,43.68-27.69,47.55-15.18-2.88-27.59-19.96-27.55-45.72Z"/>
    <path class="q" d="m390.61,128c-26.32-8.79-42.45-29.25-44.51-46.33,10.23-12.66,39-22.43,65.32-13.64,26.32,8.79,39.46,28.45,37.25,45.9-9.18,15.34-31.74,22.86-58.06,14.08Z"/>
    <path class="q" d="m355.08,62.41c-23.14-7.73-37.32-25.72-39.14-40.74,8.99-11.13,34.29-19.72,57.43-12,23.14,7.73,34.69,25.02,32.75,40.36-8.07,13.48-27.91,20.1-51.05,12.38Z"/>
    <path class="q" d="m449.82,167.98c-13,9.86-28.55,10.2-37.81,4.77-3.03-9.91,1.43-28.02,14.43-37.88,13-9.86,27.17-9,35.23-1.3,4.72,10.4,1.15,24.54-11.85,34.4Z"/>
    <path class="q" d="m477.22,200.46c-11.24-9.41-15.39-22.71-13.29-31.65,7.28-4.38,23.08-3.78,34.31,5.63,11.24,9.41,14.07,21.75,9.83,30.05-7.26,5.92-19.62,5.38-30.85-4.03Z"/>
    <path class="q" d="m489.08,312.63c-5.05,9.77-13.68,15.09-20.1,15.13-3.94-4.5-5.53-16.03-.47-25.8,5.05-9.77,13.18-13.97,19.44-12.35,4.99,4.22,6.19,13.25,1.13,23.02Z"/>
    <path class="q" d="m443.83,297.76c-17.24.04-30.61-8.69-35.01-18.2,3.72-9.34,18.97-20.63,36.21-20.67s28.69,8.81,30.62,19.36c-2.6,10.69-14.58,19.46-31.83,19.5Z"/>
    <path class="q" d="m458.12,253.09c-4.84-18.61.4-36.1,8.95-44.18,10.64.74,26.49,13.26,31.33,31.88,4.84,18.61-1.06,34.07-11.37,39.85-11.71.94-24.07-8.93-28.91-27.55Z"/>
    <path class="q" d="m-4.62,114.07c9.34-17.88,7.62-36.98.27-47.24-11.56-1.73-31.33,7.35-40.67,25.23-9.34,17.88-6.46,35.06,3.29,43.38,12.34,3.7,27.77-3.49,37.11-21.37Z"/>
    <path class="q" d="m32.9,36.02C25.03,10.93,6.46-5.54-9.11-8.7-20.71-.12-29.79,25.89-21.92,50.97c7.87,25.09,25.73,38.72,41.65,37.95,14.04-7.41,21.03-27.81,13.16-52.9Z"/>
    <path class="q" d="m96.2,6.5c5.68-25.12-2.47-48.29-14.67-58.72-14.61,1.47-35.76,18.94-41.43,44.07-5.68,25.12,3.27,45.54,17.78,52.82,16.17.72,32.66-13.04,38.33-38.17Z"/>
    <path class="q" d="m96.25,112.46c28.88-2.44,49.92-18.64,55.82-34.82-7.66-14.73-34.92-30.95-63.8-28.51-28.88,2.44-46.68,18.56-48.3,36.08,5.99,17.09,27.4,29.68,56.28,27.24Z"/>
    <path class="q" d="m147.15,56.78c25.39-2.15,43.89-16.39,49.08-30.61-6.73-12.95-30.71-27.21-56.09-25.07-25.39,2.15-41.04,16.32-42.46,31.73,5.27,15.03,24.09,26.1,49.48,23.95Z"/>
    <path class="q" d="m26.8,137.66c11.11,12.64,26.94,16.59,37.63,13.46,5.3-8.96,4.75-27.65-6.36-40.29-11.11-12.64-25.8-15.1-35.75-9.47-7.14,9.04-6.63,23.66,4.49,36.3Z"/>
    <path class="q" d="m-8.44,162.95c13.58-6.56,20.78-18.57,20.62-27.77-6.48-5.97-22.77-9.06-36.35-2.5-13.58,6.56-19.22,17.93-16.73,27.01,6.11,7.46,18.88,9.82,32.46,3.26Z"/>
    <path class="q" d="m4.13,265.6c17.63,4.05,33.24-1.34,39.85-9.59-1.73-9.97-14.83-24.53-32.46-28.58-17.63-4.05-31.3,1.91-35.62,11.75.29,11.03,10.6,22.37,28.23,26.42Z"/>
    <path class="q" d="m-.57,218.72c9.09-17.02,7.6-35.29.65-45.16-11.05-1.75-30.04,6.77-39.13,23.79-9.09,17.02-6.48,33.46,2.79,41.5,11.77,3.64,26.6-3.11,35.69-20.13Z"/>
    <path class="q" d="m14.66,506.44c-10.41,8.84-14.35,20.73-12.51,28.45,6.64,3.46,21.15,2.11,31.56-6.73,10.41-8.84,13.13-19.81,9.32-26.87-6.61-4.81-17.96-3.69-28.37,5.15Z"/>
    <path class="q" d="m30.21,466.15c-8.9-9.68-20.99-12.86-28.91-10.61-3.62,6.71-2.42,20.84,6.48,30.52s20.07,11.72,27.33,7.58c5-6.75,4-17.81-4.9-27.49Z"/>
    <path class="q" d="m-9.35,425.88c-17.13-.73-31.33,7.02-36.72,15.87,2.69,9.01,16.64,20.33,33.76,21.06,17.13.73,29.44-7.21,32.49-17.15-1.44-10.25-12.4-19.05-29.53-19.77Z"/>
    <path class="q" d="m-13.45,380.53c-14.15-9.04-30.16-9.17-39.26-3.99-2.33,9.28,3.71,26.12,17.86,35.16,14.15,9.04,28.65,8.07,36.32.78,4.02-9.76-.77-22.91-14.93-31.95Z"/>
    <path class="q" d="m51.54,403.94c4.89-18.25-.39-34.74-9-41.93-10.72,1.44-26.71,14.57-31.6,32.82-4.89,18.25,1.06,32.73,11.45,37.6,11.81.11,24.27-10.24,29.16-28.49Z"/>
    <path class="q" d="m28.65,360.4c4.3-16.05-.34-30.54-7.92-36.87-9.43,1.26-23.48,12.81-27.78,28.86-4.3,16.05.93,28.78,10.06,33.06,10.38.09,21.33-9,25.63-25.05Z"/>
    <path class="q" d="m51.63,452.1c10.21-4.02,16.14-12.85,16.58-20.1-4.32-5.23-15.91-9.03-26.12-5.01-10.21,4.02-14.97,12.48-13.72,19.83,3.97,6.38,13.05,9.3,23.26,5.28Z"/>
    <path class="q" d="m59.35,479.3c-1.02-9.78-6.79-16.85-12.47-18.79-5.09,2.65-10.59,11.96-9.58,21.74,1.02,9.78,6.74,15.75,12.87,16.23,5.93-2.1,10.2-9.4,9.18-19.19Z"/>
    <path class="q" d="m116.54,525.59c7.23.52,13.33-2.57,15.73-6.25-1.02-3.85-6.76-8.82-13.99-9.35-7.23-.52-12.53,2.68-13.95,6.85.47,4.36,4.99,8.22,12.21,8.75Z"/>
    <path class="q" d="m125.07,494.3c6.38-9.92,6.53-20.68,2.93-26.56-6.5-1.15-18.32,3.67-24.71,13.59-6.38,9.92-5.75,19.62-.67,24.45,6.83,2.26,16.06-1.55,22.45-11.47Z"/>
    <path class="q" d="m95.28,486.82c-8.43-9.34-19.96-12.47-27.55-10.39-3.52,6.39-2.5,19.92,5.93,29.26,8.43,9.34,19.09,11.37,26.07,7.47,4.84-6.42,3.98-17-4.45-26.34Z"/>
  </g>
</svg>